<svg xmlns="http://www.w3.org/2000/svg" viewBox="0 0 900 620" role="img" aria-labelledby="title desc">
  <title id="title">Pet hospital hero image</title>
  <desc id="desc">A friendly pet hospital reception and examination room illustration with a veterinarian, dog, cat, and medical equipment.</desc>
  <defs>
    <linearGradient id="bg" x1="0" x2="1" y1="0" y2="1">
      <stop offset="0" stop-color="#fff2e7"/>
      <stop offset=".55" stop-color="#ffe2cf"/>
      <stop offset="1" stop-color="#f8cfaa"/>
    </linearGradient>
    <filter id="shadow" x="-20%" y="-20%" width="140%" height="140%">
      <feDropShadow dx="0" dy="28" stdDeviation="24" flood-color="#5b3c28" flood-opacity=".22"/>
    </filter>
  </defs>
  <rect width="900" height="620" rx="44" fill="url(#bg)"/>
  <circle cx="752" cy="118" r="114" fill="#fff" opacity=".42"/>
  <circle cx="130" cy="498" r="156" fill="#ba7a43" opacity=".14"/>
  <g filter="url(#shadow)">
    <rect x="110" y="92" width="680" height="390" rx="42" fill="#fffaf5" opacity=".9"/>
    <rect x="156" y="138" width="220" height="296" rx="32" fill="#fff0df"/>
    <rect x="186" y="170" width="92" height="12" rx="6" fill="#34251c" opacity=".7"/>
    <rect x="186" y="198" width="150" height="10" rx="5" fill="#9a5d31" opacity=".45"/>
    <rect x="186" y="222" width="110" height="10" rx="5" fill="#9a5d31" opacity=".35"/>
    <g transform="translate(428 144)">
      <rect x="88" y="88" width="156" height="166" rx="42" fill="#f8e1cf"/>
      <circle cx="166" cy="66" r="58" fill="#8d5f3e"/>
      <rect x="126" y="116" width="80" height="126" rx="30" fill="#fff"/>
      <rect x="144" y="134" width="44" height="12" rx="6" fill="#ba7a43"/>
      <circle cx="114" cy="48" r="12" fill="#34251c"/>
      <circle cx="212" cy="48" r="12" fill="#34251c"/>
      <rect x="0" y="170" width="132" height="82" rx="34" fill="#f3c6a8"/>
      <circle cx="20" cy="166" r="28" fill="#f3c6a8"/>
      <circle cx="98" cy="166" r="28" fill="#f3c6a8"/>
      <circle cx="40" cy="190" r="8" fill="#34251c"/>
      <circle cx="78" cy="190" r="8" fill="#34251c"/>
      <path d="M51 216c18 12 35 12 52 0" fill="none" stroke="#34251c" stroke-width="7" stroke-linecap="round"/>
      <rect x="254" y="126" width="70" height="126" rx="22" fill="#ffe2cf"/>
      <circle cx="289" cy="164" r="20" fill="#fff"/>
      <rect x="276" y="202" width="28" height="7" rx="3.5" fill="#34251c" opacity=".45"/>
    </g>
  </g>
  <g transform="translate(126 482)" fill="#34251c" opacity=".14">
    <ellipse cx="0" cy="0" rx="38" ry="18"/>
    <ellipse cx="120" cy="0" rx="56" ry="20"/>
    <ellipse cx="628" cy="0" rx="58" ry="20"/>
  </g>
</svg>
