<svg xmlns="http://www.w3.org/2000/svg" viewBox="0 0 900 620" role="img" aria-labelledby="title desc">
  <title id="title">Health consumer brand hero image</title>
  <desc id="desc">A warm product photography style illustration with nutrition bottles, botanical leaves, grains, and soft daylight.</desc>
  <defs>
    <linearGradient id="bg" x1="0" x2="1" y1="0" y2="1">
      <stop offset="0" stop-color="#f7f1df"/>
      <stop offset=".55" stop-color="#dbecc8"/>
      <stop offset="1" stop-color="#f5d9a8"/>
    </linearGradient>
    <radialGradient id="glow" cx=".25" cy=".18" r=".7">
      <stop offset="0" stop-color="#ffffff" stop-opacity=".92"/>
      <stop offset=".45" stop-color="#ffffff" stop-opacity=".28"/>
      <stop offset="1" stop-color="#ffffff" stop-opacity="0"/>
    </radialGradient>
    <filter id="shadow" x="-20%" y="-20%" width="140%" height="140%">
      <feDropShadow dx="0" dy="28" stdDeviation="24" flood-color="#5c7442" flood-opacity=".22"/>
    </filter>
  </defs>
  <rect width="900" height="620" rx="44" fill="url(#bg)"/>
  <rect width="900" height="620" rx="44" fill="url(#glow)"/>
  <circle cx="742" cy="122" r="98" fill="#fff8df" opacity=".55"/>
  <circle cx="112" cy="512" r="150" fill="#86a96c" opacity=".18"/>
  <path d="M140 420c82-48 126-38 184 20 41 41 87 54 166 23 88-35 155-18 224 57" fill="none" stroke="#678d4d" stroke-width="22" stroke-linecap="round" opacity=".25"/>
  <g filter="url(#shadow)">
    <ellipse cx="450" cy="510" rx="272" ry="42" fill="#4d6339" opacity=".18"/>
    <g transform="translate(320 110)">
      <rect x="86" y="18" width="166" height="362" rx="42" fill="#fbf5df"/>
      <rect x="107" y="-10" width="124" height="58" rx="24" fill="#7f9f5f"/>
      <rect x="112" y="84" width="114" height="114" rx="57" fill="#dcebcf"/>
      <path d="M132 142c36-58 72-58 108 0-32 42-70 42-108 0Z" fill="#789a5a" opacity=".78"/>
      <rect x="118" y="228" width="104" height="18" rx="9" fill="#24331f" opacity=".78"/>
      <rect x="132" y="262" width="76" height="12" rx="6" fill="#7f9f5f" opacity=".72"/>
      <rect x="104" y="312" width="132" height="44" rx="18" fill="#24331f"/>
      <circle cx="172" cy="334" r="14" fill="#f5e4b5"/>
    </g>
    <g transform="translate(178 260)">
      <rect x="0" y="0" width="150" height="180" rx="32" fill="#fff9e8"/>
      <rect x="28" y="-24" width="94" height="42" rx="16" fill="#d3b37b"/>
      <circle cx="75" cy="76" r="44" fill="#f1ddb4"/>
      <path d="M50 82c20-34 44-38 70-6-18 30-43 35-70 6Z" fill="#8dad68"/>
      <rect x="36" y="132" width="78" height="12" rx="6" fill="#3b4b2e" opacity=".7"/>
    </g>
    <g transform="translate(566 282)">
      <rect x="0" y="0" width="128" height="156" rx="30" fill="#eef4df"/>
      <rect x="24" y="-18" width="80" height="34" rx="14" fill="#90ad72"/>
      <circle cx="64" cy="70" r="34" fill="#fff9e8"/>
      <rect x="34" y="114" width="60" height="10" rx="5" fill="#3b4b2e" opacity=".7"/>
    </g>
  </g>
  <g fill="none" stroke-linecap="round" stroke-width="18" opacity=".9">
    <path d="M246 162c-36-32-42-72-14-120 50 22 66 62 42 112" stroke="#76985b"/>
    <path d="M686 202c44-34 86-34 126 4-36 42-80 48-132 18" stroke="#7c9b60"/>
    <path d="M620 118c-8-48 12-84 62-108 22 48 12 88-30 120" stroke="#abc48c"/>
  </g>
  <g transform="translate(92 90)">
    <rect width="246" height="88" rx="30" fill="#ffffff" opacity=".78"/>
    <circle cx="50" cy="44" r="24" fill="#dcebcf"/>
    <rect x="88" y="28" width="110" height="12" rx="6" fill="#24331f" opacity=".72"/>
    <rect x="88" y="52" width="76" height="10" rx="5" fill="#7f9f5f" opacity=".7"/>
  </g>
</svg>
