<svg xmlns="http://www.w3.org/2000/svg" viewBox="0 0 900 520" role="img" aria-labelledby="title desc">
  <title id="title">Pet clinic trust scene image</title>
  <desc id="desc">Veterinary clinic equipment, doctor card, pet care checklist, and appointment card.</desc>
  <defs>
    <linearGradient id="bg" x1="0" x2="1" y1="0" y2="1">
      <stop offset="0" stop-color="#fff7ef"/>
      <stop offset=".52" stop-color="#ffe4d2"/>
      <stop offset="1" stop-color="#f7c798"/>
    </linearGradient>
  </defs>
  <rect width="900" height="520" rx="40" fill="url(#bg)"/>
  <circle cx="750" cy="92" r="84" fill="#fff" opacity=".48"/>
  <g transform="translate(105 84)">
    <rect width="690" height="338" rx="38" fill="#fffdf9" opacity=".88"/>
    <rect x="40" y="42" width="250" height="236" rx="30" fill="#34251c"/>
    <rect x="72" y="76" width="120" height="14" rx="7" fill="#ffe2cf"/>
    <rect x="72" y="112" width="160" height="11" rx="5.5" fill="#fff" opacity=".38"/>
    <rect x="72" y="138" width="126" height="11" rx="5.5" fill="#fff" opacity=".28"/>
    <circle cx="164" cy="210" r="48" fill="#f3c6a8"/>
    <path d="M132 212c22-28 44-32 66-4" fill="none" stroke="#fff" stroke-width="10" stroke-linecap="round"/>
    <rect x="336" y="42" width="142" height="236" rx="32" fill="#fff0df"/>
    <circle cx="407" cy="112" r="42" fill="#ba7a43"/>
    <rect x="372" y="178" width="70" height="12" rx="6" fill="#34251c" opacity=".55"/>
    <rect x="380" y="204" width="54" height="10" rx="5" fill="#9a5d31" opacity=".55"/>
    <rect x="520" y="42" width="122" height="236" rx="32" fill="#fff6ed"/>
    <circle cx="581" cy="110" r="38" fill="#ffe2cf"/>
    <rect x="552" y="172" width="58" height="10" rx="5" fill="#34251c" opacity=".45"/>
    <rect x="546" y="198" width="70" height="34" rx="17" fill="#9a5d31" opacity=".28"/>
  </g>
</svg>
