<svg xmlns="http://www.w3.org/2000/svg" viewBox="0 0 900 620" role="img" aria-labelledby="title desc">
  <title id="title">Local service website hero image</title>
  <desc id="desc">A warm neighborhood storefront with service cards, reviews, and appointment entry.</desc>
  <defs>
    <linearGradient id="bg" x1="0" x2="1" y1="0" y2="1"><stop offset="0" stop-color="#f8f1df"/><stop offset=".56" stop-color="#e3edd9"/><stop offset="1" stop-color="#cddfb9"/></linearGradient>
    <filter id="shadow" x="-20%" y="-20%" width="140%" height="140%"><feDropShadow dx="0" dy="26" stdDeviation="24" flood-color="#274137" flood-opacity=".18"/></filter>
  </defs>
  <rect width="900" height="620" rx="44" fill="url(#bg)"/>
  <circle cx="744" cy="126" r="112" fill="#fff" opacity=".46"/>
  <g filter="url(#shadow)">
    <rect x="104" y="108" width="692" height="382" rx="42" fill="#fffdf4" opacity=".9"/>
    <rect x="154" y="164" width="292" height="230" rx="34" fill="#274137"/>
    <rect x="190" y="200" width="118" height="15" rx="7.5" fill="#e3edd9"/>
    <rect x="190" y="236" width="190" height="12" rx="6" fill="#fff" opacity=".34"/>
    <rect x="190" y="266" width="144" height="12" rx="6" fill="#fff" opacity=".25"/>
    <g transform="translate(502 150)">
      <rect x="0" y="86" width="250" height="132" rx="30" fill="#e3edd9"/>
      <rect x="24" y="44" width="202" height="72" rx="24" fill="#5f7f43"/>
      <rect x="54" y="68" width="92" height="14" rx="7" fill="#fff"/>
      <rect x="58" y="138" width="52" height="80" rx="16" fill="#274137"/>
      <rect x="132" y="134" width="72" height="44" rx="16" fill="#fffdf4"/>
      <circle cx="208" cy="26" r="24" fill="#f0c76c"/>
    </g>
    <rect x="184" y="424" width="532" height="34" rx="17" fill="#5f7f43" opacity=".22"/>
  </g>
</svg>
