<svg xmlns="http://www.w3.org/2000/svg" viewBox="0 0 900 520" role="img" aria-labelledby="title desc">
  <title id="title">Health lifestyle content image</title>
  <desc id="desc">A breakfast desk scene with supplement products, fruit, notebook, and a content card.</desc>
  <defs>
    <linearGradient id="bg" x1="0" x2="1" y1="0" y2="1">
      <stop offset="0" stop-color="#eff6df"/>
      <stop offset=".55" stop-color="#fff6df"/>
      <stop offset="1" stop-color="#e0edcf"/>
    </linearGradient>
    <filter id="shadow" x="-20%" y="-20%" width="140%" height="140%">
      <feDropShadow dx="0" dy="24" stdDeviation="22" flood-color="#526d45" flood-opacity=".18"/>
    </filter>
  </defs>
  <rect width="900" height="520" rx="40" fill="url(#bg)"/>
  <circle cx="775" cy="86" r="86" fill="#fff" opacity=".55"/>
  <circle cx="115" cy="420" r="132" fill="#91ae70" opacity=".2"/>
  <g filter="url(#shadow)">
    <rect x="95" y="82" width="710" height="332" rx="38" fill="#fffdf2" opacity=".86"/>
    <rect x="132" y="122" width="260" height="228" rx="30" fill="#24331f"/>
    <rect x="160" y="154" width="132" height="14" rx="7" fill="#d7efc3"/>
    <rect x="160" y="190" width="188" height="18" rx="9" fill="#ffffff" opacity=".92"/>
    <rect x="160" y="226" width="156" height="12" rx="6" fill="#ffffff" opacity=".38"/>
    <rect x="160" y="252" width="118" height="12" rx="6" fill="#ffffff" opacity=".28"/>
    <rect x="160" y="296" width="92" height="32" rx="16" fill="#d7efc3"/>
    <g transform="translate(468 128)">
      <ellipse cx="88" cy="206" rx="112" ry="20" fill="#526d45" opacity=".18"/>
      <rect x="52" y="42" width="74" height="164" rx="28" fill="#f7eed0"/>
      <rect x="64" y="20" width="50" height="34" rx="13" fill="#6f964d"/>
      <circle cx="89" cy="104" r="28" fill="#dfeecf"/>
      <rect x="68" y="152" width="44" height="8" rx="4" fill="#24331f" opacity=".64"/>
      <circle cx="174" cy="144" r="54" fill="#f4c266"/>
      <circle cx="174" cy="144" r="30" fill="#fff0c5" opacity=".72"/>
      <path d="M14 138c52-42 96-42 132 0" fill="none" stroke="#9ab775" stroke-width="18" stroke-linecap="round"/>
    </g>
  </g>
</svg>
