<svg xmlns="http://www.w3.org/2000/svg" viewBox="0 0 900 620" role="img" aria-labelledby="title desc">
  <title id="title">AI technology website hero image</title>
  <desc id="desc">AI product interface, workflow nodes, data cards, and demo request module.</desc>
  <defs>
    <linearGradient id="bg" x1="0" x2="1" y1="0" y2="1"><stop offset="0" stop-color="#f3efff"/><stop offset=".56" stop-color="#e4dcff"/><stop offset="1" stop-color="#c7b8ff"/></linearGradient>
    <filter id="shadow" x="-20%" y="-20%" width="140%" height="140%"><feDropShadow dx="0" dy="26" stdDeviation="24" flood-color="#21183f" flood-opacity=".22"/></filter>
  </defs>
  <rect width="900" height="620" rx="44" fill="url(#bg)"/>
  <circle cx="740" cy="116" r="118" fill="#fff" opacity=".42"/>
  <circle cx="120" cy="500" r="150" fill="#6049a9" opacity=".14"/>
  <g filter="url(#shadow)">
    <rect x="104" y="106" width="692" height="386" rx="42" fill="#fff" opacity=".88"/>
    <rect x="154" y="156" width="312" height="246" rx="34" fill="#21183f"/>
    <rect x="190" y="198" width="126" height="16" rx="8" fill="#e4dcff"/>
    <rect x="190" y="236" width="198" height="13" rx="6.5" fill="#fff" opacity=".36"/>
    <rect x="190" y="268" width="152" height="13" rx="6.5" fill="#fff" opacity=".26"/>
    <g transform="translate(526 150)">
      <rect x="0" y="0" width="218" height="246" rx="34" fill="#e4dcff"/>
      <circle cx="108" cy="78" r="46" fill="#6049a9"/>
      <path d="M70 80h76M108 42v76" stroke="#fff" stroke-width="10" stroke-linecap="round" opacity=".76"/>
      <rect x="42" y="154" width="132" height="14" rx="7" fill="#21183f" opacity=".5"/>
      <rect x="62" y="188" width="92" height="12" rx="6" fill="#6049a9" opacity=".52"/>
    </g>
    <path d="M420 430c62-44 118-44 180 0" stroke="#6049a9" stroke-width="20" stroke-linecap="round" opacity=".24"/>
  </g>
</svg>
