<svg xmlns="http://www.w3.org/2000/svg" viewBox="0 0 900 520" role="img" aria-labelledby="title desc">
  <title id="title">AI technology scene image</title>
  <desc id="desc">Product UI, scenario solution, documentation, and API cards for a technology website.</desc>
  <defs><linearGradient id="bg" x1="0" x2="1" y1="0" y2="1"><stop offset="0" stop-color="#f3efff"/><stop offset=".6" stop-color="#e4dcff"/><stop offset="1" stop-color="#c8b9ff"/></linearGradient></defs>
  <rect width="900" height="520" rx="40" fill="url(#bg)"/>
  <g transform="translate(98 82)">
    <rect width="704" height="340" rx="38" fill="#fff" opacity=".9"/>
    <rect x="44" y="52" width="238" height="228" rx="30" fill="#21183f"/>
    <rect x="78" y="88" width="108" height="14" rx="7" fill="#e4dcff"/>
    <rect x="78" y="128" width="156" height="11" rx="5.5" fill="#fff" opacity=".36"/>
    <rect x="78" y="158" width="120" height="11" rx="5.5" fill="#fff" opacity=".25"/>
    <rect x="330" y="52" width="138" height="228" rx="30" fill="#e4dcff"/>
    <circle cx="399" cy="118" r="42" fill="#6049a9"/>
    <path d="M374 118h50M399 93v50" stroke="#fff" stroke-width="8" stroke-linecap="round" opacity=".78"/>
    <rect x="520" y="52" width="136" height="228" rx="30" fill="#f3efff"/>
    <rect x="552" y="92" width="72" height="12" rx="6" fill="#6049a9" opacity=".66"/>
    <rect x="552" y="126" width="58" height="12" rx="6" fill="#6049a9" opacity=".46"/>
    <rect x="552" y="184" width="72" height="36" rx="18" fill="#21183f"/>
  </g>
</svg>
