<svg xmlns="http://www.w3.org/2000/svg" viewBox="0 0 900 620" role="img" aria-labelledby="title desc">
  <title id="title">Design service website hero image</title>
  <desc id="desc">A design studio desk with mood boards, color cards, and brand presentation screens.</desc>
  <defs>
    <linearGradient id="bg" x1="0" x2="1" y1="0" y2="1"><stop offset="0" stop-color="#f8efe5"/><stop offset=".52" stop-color="#ead9c8"/><stop offset="1" stop-color="#d5b899"/></linearGradient>
    <filter id="shadow" x="-20%" y="-20%" width="140%" height="140%"><feDropShadow dx="0" dy="26" stdDeviation="24" flood-color="#3a2c24" flood-opacity=".18"/></filter>
  </defs>
  <rect width="900" height="620" rx="44" fill="url(#bg)"/>
  <circle cx="744" cy="118" r="112" fill="#fff" opacity=".42"/>
  <g filter="url(#shadow)">
    <rect x="102" y="104" width="696" height="390" rx="42" fill="#fffaf4" opacity=".9"/>
    <rect x="150" y="154" width="300" height="232" rx="34" fill="#3a2c24"/>
    <rect x="186" y="194" width="118" height="16" rx="8" fill="#ead9c8"/>
    <rect x="186" y="234" width="200" height="13" rx="6.5" fill="#fff" opacity=".34"/>
    <rect x="186" y="266" width="156" height="13" rx="6.5" fill="#fff" opacity=".24"/>
    <g transform="translate(502 148)">
      <rect x="0" y="0" width="118" height="172" rx="28" fill="#ead9c8"/>
      <rect x="138" y="34" width="120" height="172" rx="28" fill="#fff1e2"/>
      <circle cx="58" cy="70" r="36" fill="#8b6544"/>
      <rect x="30" y="126" width="58" height="10" rx="5" fill="#3a2c24" opacity=".48"/>
      <rect x="166" y="70" width="64" height="64" rx="20" fill="#c79d73"/>
      <path d="M22 234c64-38 126-38 190 0" stroke="#8b6544" stroke-width="18" stroke-linecap="round" opacity=".45"/>
    </g>
    <rect x="180" y="424" width="540" height="34" rx="17" fill="#8b6544" opacity=".22"/>
  </g>
</svg>
