<svg xmlns="http://www.w3.org/2000/svg" viewBox="0 0 900 620" role="img" aria-labelledby="title desc">
  <title id="title">Manufacturing website hero image</title>
  <desc id="desc">Industrial production line with robotic arms, equipment panels, and engineers.</desc>
  <defs>
    <linearGradient id="bg" x1="0" x2="1" y1="0" y2="1"><stop offset="0" stop-color="#f0f6f8"/><stop offset=".55" stop-color="#dbe8ee"/><stop offset="1" stop-color="#b8cbd5"/></linearGradient>
    <filter id="shadow" x="-20%" y="-20%" width="140%" height="140%"><feDropShadow dx="0" dy="26" stdDeviation="24" flood-color="#17242c" flood-opacity=".22"/></filter>
  </defs>
  <rect width="900" height="620" rx="44" fill="url(#bg)"/>
  <circle cx="750" cy="120" r="110" fill="#fff" opacity=".48"/>
  <circle cx="126" cy="508" r="150" fill="#42677a" opacity=".13"/>
  <g filter="url(#shadow)">
    <rect x="98" y="108" width="704" height="382" rx="42" fill="#ffffff" opacity=".88"/>
    <rect x="146" y="158" width="286" height="238" rx="34" fill="#17242c"/>
    <rect x="178" y="200" width="104" height="16" rx="8" fill="#9fb8c5"/>
    <rect x="178" y="238" width="190" height="13" rx="6.5" fill="#fff" opacity=".35"/>
    <rect x="178" y="270" width="152" height="13" rx="6.5" fill="#fff" opacity=".25"/>
    <g transform="translate(496 144)">
      <rect x="0" y="160" width="250" height="58" rx="24" fill="#314452"/>
      <rect x="28" y="82" width="72" height="116" rx="22" fill="#c9d7de"/>
      <rect x="150" y="44" width="74" height="154" rx="22" fill="#c9d7de"/>
      <circle cx="64" cy="72" r="38" fill="#42677a"/>
      <circle cx="188" cy="34" r="34" fill="#42677a"/>
      <path d="M68 86l116-46" stroke="#17242c" stroke-width="18" stroke-linecap="round"/>
      <path d="M100 148h92" stroke="#17242c" stroke-width="16" stroke-linecap="round"/>
      <circle cx="64" cy="188" r="18" fill="#17242c"/>
      <circle cx="188" cy="188" r="18" fill="#17242c"/>
    </g>
    <rect x="190" y="424" width="520" height="34" rx="17" fill="#42677a" opacity=".26"/>
  </g>
</svg>
